<svg data-name="Layer 12" viewBox="0 0 100 100" xmlns="http://www.w3.org/2000/svg"><path d="M84 65L69 31V17H30v14L16 65v13h3v5h8v-5h46v5h8v-5h3zM32 31V19h35v12l14.89 34H18.11zm-7 50h-4v-3h4zm54 0h-4v-3h4zm3-5H18v-9h64zM66.69 38h-33l-9.14 24h51.28zM27.45 60l7.61-20h30.25l7.61 20zM49 30.05A4.05 4.05 0 0044.95 26h-7.9A4.05 4.05 0 0033 30.05v2.9A4.05 4.05 0 0037.05 37h7.9A4.05 4.05 0 0049 32.95zm-2 2.9A2.05 2.05 0 0144.95 35h-7.9A2.05 2.05 0 0135 32.95v-2.9A2.05 2.05 0 0137.05 28h7.9A2.05 2.05 0 0147 30.05zm19-2.9A4.05 4.05 0 0061.95 26h-7.9A4.05 4.05 0 0050 30.05v2.9A4.05 4.05 0 0054.05 37h7.9A4.05 4.05 0 0066 32.95zm-2 2.9A2.05 2.05 0 0161.95 35h-7.9A2.05 2.05 0 0152 32.95v-2.9A2.05 2.05 0 0154.05 28h7.9A2.05 2.05 0 0164 30.05z"/></svg>