<svg viewBox="0 0 64 64" xmlns="http://www.w3.org/2000/svg"><path d="M62.9 49c0-5.1-.6-10-1.1-14.7-.6-5.4-1.2-10.9-1-17V7.9c0-.6-.5-1.1-1.1-1.1h-8.5c-.9-2-3.9-6.8-13-6.8-.6 0-1.1.5-1.1 1.1v5.7h-1.4c-.6 0-1.1.5-1.1 1.1v9.3c-.5 6.3-2 10.6-4 13.6a15.1 15.1 0 01-4.3 4.1c-3.8 2.2-8.2 2.3-12 2.5-1.9.1-3.5.1-4.8.4-3.1.7-5.3 2.3-6.7 4.8C.3 47 .7 53.8 3.9 63.4c.2.5.6.8 1 .8h2.8c.6 0 1.1-.5 1.1-1.1V63l.2.4c.2.4.6.6 1 .6h3.6c.6 0 1.1-.5 1.1-1.1v-.4l.8 1c.2.3.5.4.9.4h3.7c.6 0 1.1-.5 1.1-1.1v-.3l.6.9c.2.3.5.5.9.5h2.7c.6 0 1.1-.5 1.1-1.1v-.6l1.1 1.3c.2.2.5.4.8.4H32c.2 0 .5-.1.7-.2 5.2-4 10.1-4.3 11.8-4.3l1.8 3.9c.2.4.6.6 1 .6h4.8c.6 0 1.1-.5 1.1-1.1v-1l1.5 1.7c.2.3.5.4.8.4h5c.4 0 .8-.3 1-.6C63 60 62.9 55.6 62.9 49zM39.3 2.2c5.8.3 8.3 2.9 9.4 4.5h-9.4V2.2zM4.6 43.5c1.1-1.9 2.8-3.1 5.3-3.7 1.1-.3 2.6-.3 4.4-.3 1.5 0 3.3-.1 5.1-.3V43c0 .6.5 1.1 1.1 1.1s1.1-.5 1.1-1.1v-4.2c1.6-.3 3.1-.8 4.7-1.6l2 3.9c.2.4.6.6 1 .6.2 0 .3 0 .5-.1.5-.3.8-.9.5-1.5l-2-4c1.2-.8 2.4-1.9 3.4-3.1l4.2 3.6c.2.2.5.3.7.3.3 0 .6-.1.8-.4.4-.5.3-1.2-.1-1.6l-4.4-3.8c.7-1.2 1.4-2.6 2-4.1l5.3 2.2c.1.1.3.1.4.1.4 0 .8-.3 1-.7.2-.6 0-1.2-.6-1.4l-5.5-2.3c.6-2.2 1.1-4.8 1.3-7.7V9H58.6v8.3c-.1 6.2.5 11.8 1.1 17.2.5 4.6 1 9.4 1.1 14.4v1.3c-3.1-.2-11.7-.5-22.4 1.5-8.1 1.5-20.7 2.4-34.6 2.4-.8-4.6-.6-8.1.8-10.6zm55.1 18.3H56l-3.1-3.7c-.3-.4-.8-.5-1.2-.3-.4.2-.7.6-.7 1v3h-3L46.2 58c-.2-.3-.5-.6-.9-.6-.3 0-6.7-.7-13.6 4.5H29l-2.7-3.2c-.3-.4-.8-.5-1.2-.3-.4.2-.7.6-.7 1v2.4h-1L21 58.5c-.3-.4-.8-.6-1.2-.4-.5.1-.8.6-.8 1.1v2.7h-2.1l-2.4-3.2c-.3-.4-.8-.5-1.2-.4-.4.2-.8.6-.8 1v2.6h-1.8L8.6 58c-.2-.4-.8-.7-1.2-.5-.5.1-.8.6-.8 1.1v3.2h-1C5 59.9 4.5 58 4.2 56.4c8.7 0 23.6-.4 34.5-2.4 10.6-1.9 19.2-1.6 22-1.4 0 3.9-.2 6.9-1 9.2z"/></svg>