<svg viewBox="0 0 64 64" xmlns="http://www.w3.org/2000/svg"><path d="M42.3 37.5h-9v-6.4c.6.2 1.4.3 2.3.3.9 0 2-.1 3-.6 2.1-.9 3.7-2.7 4.6-5.4.2-.5-.1-1.1-.6-1.3-2.6-1-5-1-7 .1-1 .5-1.7 1.1-2.4 1.8v-4.9c.3.2.7.3 1.1.3a4 4 0 002.1-.7c1.3-.8 1.9-1.7 1.8-2.8-.1-.6-.4-1.1-.8-1.5.4 0 .8-.2 1.1-.4.8-.6 1.1-1.7.8-3.2-.3-1.5-.9-2.4-1.9-2.7-.7-.2-1.4 0-2.1.4.1-.6.1-1.2-.1-1.7-.4-.9-1.4-1.4-3-1.4-1.5 0-2.5.5-3 1.4-.2.5-.3 1.1-.1 1.6a3 3 0 00-1-.4c-1-.1-1.9.5-2.7 1.9-.8 1.3-.9 2.4-.3 3.3.5.7 1.3 1 2.1 1.1-.5.5-.9 1-.9 1.7-.1 1 .6 1.9 1.9 2.7.8.4 1.4.6 2 .6.4 0 .7-.1 1.1-.3v10c-.7-.9-1.7-1.8-3-2.4-2-.9-4.4-.9-7 .2-.5.2-.8.8-.5 1.3 1.1 2.6 2.7 4.4 4.8 5.2.9.3 1.8.5 2.7.5 1.2 0 2.3-.3 3-.5v2h-9c-.3 0-.6.1-.7.3s-.3.5-.3.8l1.7 17c.1.5.5.9 1 .9h16.5c.5 0 .9-.4 1-.9l1.7-17c0-.3-.1-.6-.3-.8s-.3-.1-.6-.1zm-5.8-11.4c1.3-.6 2.7-.7 4.4-.3-.8 1.6-1.8 2.7-3.1 3.2-1.6.7-3.2.4-4.2.2.5-1 1.4-2.4 2.9-3.1zm-10.2 7.6a6 6 0 01-3.2-3.1c1.6-.5 3.1-.5 4.4.1 1.6.7 2.5 2.1 3 3-1 .3-2.6.6-4.2 0zm7-19.2c0 .6-.4 1-1 1s-1-.4-1-1 .4-1 1-1c.5 0 1 .4 1 1zm2.1 4.6c-.7.5-1.1.4-1.1.4-.3-.2-.4-1.3-.3-2.3V17c.1 0 .1-.1.2-.2.1 0 .1.1.2.1.9.3 1.9 1 1.9 1.3 0 .1-.1.4-.9.9zm1.6-7c.1 0 .3.2.5 1.1.2.9 0 1.2 0 1.2-.3.2-1.3-.1-2.2-.5 0-.2-.1-.4-.1-.5.5-.7 1.5-1.3 1.8-1.3zm-5.9-2.3c0-.1.3-.3 1.2-.3.9 0 1.1.2 1.2.3.1.3-.2 1.1-.7 1.8h-1c-.5-.8-.8-1.6-.7-1.8zM27.2 13c.4-.8.8-.9.8-.9.3 0 1 .9 1.3 1.9v.4h-.2c-1 .1-2.1 0-2.3-.3 0 0 0-.3.4-1.1zm3.1 6.5s-.4.1-1.1-.4c-.8-.4-.9-.7-.9-.8 0-.3 1-1 1.9-1.4.1 0 .2-.1.2-.1.1 0 .1.1.2.1v.2c.1 1 0 2.2-.3 2.4zm10.9 20L39.9 52H24.7l-1.3-12.5h17.8zm-16.3 15l-.1-1.5h15l-.2 1.5H24.9z" fill="#282828"/></svg>