<svg id="Layer_1" version="1.1" viewBox="0 0 64 64" xml:space="preserve" xmlns="http://www.w3.org/2000/svg"><style>.st0{fill:none;stroke:#1a1a1a;stroke-width:2;stroke-linecap:round;stroke-linejoin:round;stroke-miterlimit:10}.st1{fill:#1a1a1a}</style><path class="st0" d="M10 32h44v24H10z"/><path class="st0" d="M18 36h28v12H18zM10 52h44M52 22H12a2 2 0 00-2 2v8h44v-8a2 2 0 00-2-2z"/><circle class="st1" cx="18" cy="27" r="2"/><circle class="st1" cx="25" cy="27" r="2"/><circle class="st1" cx="32" cy="27" r="2"/><circle class="st1" cx="39" cy="27" r="2"/><circle class="st1" cx="46" cy="27" r="2"/><path class="st0" d="M27 39l-.9.9c-.6.6-.5 1.6.1 2.1.8.6.7 1.8-.1 2.3L25 45M33 39l-.9.9c-.6.6-.5 1.6.1 2.1.8.6.7 1.8-.1 2.3L31 45M39 39l-.9.9c-.6.6-.5 1.6.1 2.1.8.6.7 1.8-.1 2.3L37 45M47 20h-6c-1.7 0-3-1.3-3-3v-4h12v4c0 1.7-1.3 3-3 3zM55 15h-5M27 20H17c-2.8 0-5-2.2-5-5h20c0 2.8-2.2 5-5 5zM16 8l-.8 1.1c-.7 1-.3 2.3.8 2.9M23 8l-.8 1.1c-.7 1-.3 2.3.8 2.9M30 8l-.8 1.1c-.7 1-.3 2.3.8 2.9"/></svg>