<?xml version="1.0" encoding="utf-8"?>
<!-- Generator: Adobe Illustrator 24.1.2, SVG Export Plug-In . SVG Version: 6.00 Build 0)  -->
<svg version="1.1" id="Layer_1" xmlns="http://www.w3.org/2000/svg" xmlns:xlink="http://www.w3.org/1999/xlink" x="0px" y="0px"
	 viewBox="0 0 595.28 841.89" style="enable-background:new 0 0 595.28 841.89;" xml:space="preserve">
<style type="text/css">
	.st0{fill:#020203;}
</style>
<path class="st0" d="M303.84,420h-11.68c-5.06,0.01-9.15,4.1-9.16,9.16V435c0,0.55,0.45,1,1,1h28c0.55,0,1-0.45,1-1v-5.84
	C312.99,424.1,308.9,420.01,303.84,420z M311,434h-26v-4.84c0.01-3.95,3.21-7.15,7.16-7.16h11.68c3.95,0.01,7.15,3.21,7.16,7.16V434
	z"/>
<path class="st0" d="M298,422c-4.42,0-8-3.58-8-8s3.58-8,8-8s8,3.58,8,8S302.42,422,298,422z M298,408c-3.31,0-6,2.69-6,6
	s2.69,6,6,6s6-2.69,6-6S301.31,408,298,408z"/>
<path class="st0" d="M338.84,420h-11.68c-5.06,0.01-9.15,4.1-9.16,9.16V435c0,0.55,0.45,1,1,1h28c0.55,0,1-0.45,1-1v-5.84
	C347.99,424.1,343.9,420.01,338.84,420z M346,434h-26v-4.84c0.01-3.95,3.21-7.15,7.16-7.16h11.68c3.95,0.01,7.15,3.21,7.16,7.16V434
	z"/>
<path class="st0" d="M333,422c-4.42,0-8-3.58-8-8s3.58-8,8-8s8,3.58,8,8S337.42,422,333,422z M333,408c-3.31,0-6,2.69-6,6
	s2.69,6,6,6s6-2.69,6-6S336.31,408,333,408z"/>
<path class="st0" d="M303.84,453h-11.68c-5.06,0.01-9.15,4.1-9.16,9.16V468c0,0.55,0.45,1,1,1h28c0.55,0,1-0.45,1-1v-5.84
	C312.99,457.1,308.9,453.01,303.84,453z M311,467h-26v-4.84c0.01-3.95,3.21-7.15,7.16-7.16h11.68c3.95,0.01,7.15,3.21,7.16,7.16V467
	z"/>
<path class="st0" d="M298,455c-4.42,0-8-3.58-8-8s3.58-8,8-8s8,3.58,8,8S302.42,455,298,455z M298,441c-3.31,0-6,2.69-6,6
	s2.69,6,6,6s6-2.69,6-6S301.31,441,298,441z"/>
<path class="st0" d="M338.84,453h-11.68c-5.06,0.01-9.15,4.1-9.16,9.16V468c0,0.55,0.45,1,1,1h28c0.55,0,1-0.45,1-1v-5.84
	C347.99,457.1,343.9,453.01,338.84,453z M346,467h-26v-4.84c0.01-3.95,3.21-7.15,7.16-7.16h11.68c3.95,0.01,7.15,3.21,7.16,7.16V467
	z"/>
<path class="st0" d="M333,455c-4.42,0-8-3.58-8-8s3.58-8,8-8s8,3.58,8,8S337.42,455,333,455z M333,441c-3.31,0-6,2.69-6,6
	s2.69,6,6,6s6-2.69,6-6S336.31,441,333,441z"/>
</svg>
