<svg viewBox="0 0 64 64" xmlns="http://www.w3.org/2000/svg"><style></style><g id="Layer_2"><path d="M12.2 43.2c2.8 0 5.1-2.3 5.1-5.1S15 33 12.2 33s-5.1 2.3-5.1 5.1 2.3 5.1 5.1 5.1zm0-8.2c1.7 0 3.1 1.4 3.1 3.1 0 1.7-1.4 3.1-3.1 3.1-1.7 0-3.1-1.4-3.1-3.1 0-1.7 1.4-3.1 3.1-3.1zM14.3 43.9h-4.2C6.2 43.9 3 47.1 3 51v5.8h18.4V51c0-3.9-3.2-7.1-7.1-7.1zm5.1 10.9H5V51a5.15 5.15 0 015.1-5.1h4.2a5.15 5.15 0 015.1 5.1v3.8zM46.7 38.1c0 2.8 2.3 5.1 5.1 5.1s5.1-2.3 5.1-5.1-2.3-5.1-5.1-5.1-5.1 2.3-5.1 5.1zm5.1-3.1c1.7 0 3.1 1.4 3.1 3.1 0 1.7-1.4 3.1-3.1 3.1-1.7 0-3.1-1.4-3.1-3.1 0-1.7 1.4-3.1 3.1-3.1zM53.9 43.9h-4.2c-3.9 0-7.1 3.2-7.1 7.1v5.8H61V51c0-3.9-3.2-7.1-7.1-7.1zM59 54.8H44.6V51a5.15 5.15 0 015.1-5.1h4.2A5.15 5.15 0 0159 51v3.8zM26.9 38.1c0 2.8 2.3 5.1 5.1 5.1s5.1-2.3 5.1-5.1S34.8 33 32 33s-5.1 2.3-5.1 5.1zM32 35c1.7 0 3.1 1.4 3.1 3.1 0 1.7-1.4 3.1-3.1 3.1-1.7 0-3.1-1.4-3.1-3.1 0-1.7 1.4-3.1 3.1-3.1zM34.1 43.9h-4.2c-3.9 0-7.1 3.2-7.1 7.1v5.8h18.4V51c0-3.9-3.2-7.1-7.1-7.1zm5.1 10.9H24.8V51a5.15 5.15 0 015.1-5.1h4.2a5.15 5.15 0 015.1 5.1v3.8zM22.1 17.4c2.8 0 5.1-2.3 5.1-5.1s-2.3-5.1-5.1-5.1S17 9.5 17 12.3s2.3 5.1 5.1 5.1zm0-8.2c1.7 0 3.1 1.4 3.1 3.1 0 1.7-1.4 3.1-3.1 3.1-1.7 0-3.1-1.4-3.1-3.1 0-1.8 1.4-3.1 3.1-3.1zM31.3 25.2c0-3.9-3.2-7.1-7.1-7.1H20c-3.9 0-7.1 3.2-7.1 7.1V31h18.4v-5.8zm-2 3.8H14.9v-3.8a5.15 5.15 0 015.1-5.1h4.2a5.15 5.15 0 015.1 5.1V29zM41.9 17.4c2.8 0 5.1-2.3 5.1-5.1s-2.3-5.1-5.1-5.1-5.1 2.3-5.1 5.1 2.3 5.1 5.1 5.1zm0-8.2c1.7 0 3.1 1.4 3.1 3.1 0 1.7-1.4 3.1-3.1 3.1-1.7 0-3.1-1.4-3.1-3.1 0-1.8 1.4-3.1 3.1-3.1zM51.1 25.2c0-3.9-3.2-7.1-7.1-7.1h-4.2c-3.9 0-7.1 3.2-7.1 7.1V31h18.4v-5.8zm-2 3.8H34.7v-3.8a5.15 5.15 0 015.1-5.1H44a5.15 5.15 0 015.1 5.1V29z"/></g></svg>