<svg id="Layer_1" data-name="Layer 1" xmlns="http://www.w3.org/2000/svg" viewBox="0 0 65 63"><defs><style>.cls-1{fill:#010101;}</style></defs><path class="cls-1" d="M303.8,420H292.2a9.2,9.2,0,0,0-9.2,9.2V435a.9.9,0,0,0,1,1h28a.9.9,0,0,0,1-1v-5.8A9.2,9.2,0,0,0,303.8,420Zm7.2,14H285v-4.8a7.2,7.2,0,0,1,7.2-7.2h11.6a7.2,7.2,0,0,1,7.2,7.2Z" transform="translate(-283 -406)"/><path class="cls-1" d="M298,422a8,8,0,1,1,8-8A8,8,0,0,1,298,422Zm0-14a6,6,0,1,0,6,6A6,6,0,0,0,298,408Z" transform="translate(-283 -406)"/><path class="cls-1" d="M338.8,420H327.2a9.2,9.2,0,0,0-9.2,9.2V435a.9.9,0,0,0,1,1h28a.9.9,0,0,0,1-1v-5.8A9.2,9.2,0,0,0,338.8,420Zm7.2,14H320v-4.8a7.2,7.2,0,0,1,7.2-7.2h11.6a7.2,7.2,0,0,1,7.2,7.2Z" transform="translate(-283 -406)"/><path class="cls-1" d="M333,422a8,8,0,1,1,8-8A8,8,0,0,1,333,422Zm0-14a6,6,0,1,0,6,6A6,6,0,0,0,333,408Z" transform="translate(-283 -406)"/><path class="cls-1" d="M303.8,453H292.2a9.2,9.2,0,0,0-9.2,9.2V468a.9.9,0,0,0,1,1h28a.9.9,0,0,0,1-1v-5.8A9.2,9.2,0,0,0,303.8,453Zm7.2,14H285v-4.8a7.2,7.2,0,0,1,7.2-7.2h11.6a7.2,7.2,0,0,1,7.2,7.2Z" transform="translate(-283 -406)"/><path class="cls-1" d="M298,455a8,8,0,1,1,8-8A8,8,0,0,1,298,455Zm0-14a6,6,0,1,0,6,6A6,6,0,0,0,298,441Z" transform="translate(-283 -406)"/><path class="cls-1" d="M338.8,453H327.2a9.2,9.2,0,0,0-9.2,9.2V468a.9.9,0,0,0,1,1h28a.9.9,0,0,0,1-1v-5.8A9.2,9.2,0,0,0,338.8,453Zm7.2,14H320v-4.8a7.2,7.2,0,0,1,7.2-7.2h11.6a7.2,7.2,0,0,1,7.2,7.2Z" transform="translate(-283 -406)"/><path class="cls-1" d="M333,455a8,8,0,1,1,8-8A8,8,0,0,1,333,455Zm0-14a6,6,0,1,0,6,6A6,6,0,0,0,333,441Z" transform="translate(-283 -406)"/></svg>