<svg id="Layer_1" data-name="Layer 1" xmlns="http://www.w3.org/2000/svg" viewBox="0 0 65 63"><defs><style>.cls-1{fill:#010101}</style></defs><path class="cls-1" d="M303.84 420h-11.68a9.17 9.17 0 00-9.16 9.16V435a1 1 0 001 1h28a1 1 0 001-1v-5.84a9.17 9.17 0 00-9.16-9.16zm7.16 14h-26v-4.84a7.18 7.18 0 017.16-7.16h11.68a7.18 7.18 0 017.16 7.16z" transform="translate(-283 -406)"/><path class="cls-1" d="M298 422a8 8 0 118-8 8 8 0 01-8 8zm0-14a6 6 0 106 6 6 6 0 00-6-6zM338.84 420h-11.68a9.17 9.17 0 00-9.16 9.16V435a1 1 0 001 1h28a1 1 0 001-1v-5.84a9.17 9.17 0 00-9.16-9.16zm7.16 14h-26v-4.84a7.18 7.18 0 017.16-7.16h11.68a7.18 7.18 0 017.16 7.16z" transform="translate(-283 -406)"/><path class="cls-1" d="M333 422a8 8 0 118-8 8 8 0 01-8 8zm0-14a6 6 0 106 6 6 6 0 00-6-6zM303.84 453h-11.68a9.17 9.17 0 00-9.16 9.16V468a1 1 0 001 1h28a1 1 0 001-1v-5.84a9.17 9.17 0 00-9.16-9.16zm7.16 14h-26v-4.84a7.18 7.18 0 017.16-7.16h11.68a7.18 7.18 0 017.16 7.16z" transform="translate(-283 -406)"/><path class="cls-1" d="M298 455a8 8 0 118-8 8 8 0 01-8 8zm0-14a6 6 0 106 6 6 6 0 00-6-6zM338.84 453h-11.68a9.17 9.17 0 00-9.16 9.16V468a1 1 0 001 1h28a1 1 0 001-1v-5.84a9.17 9.17 0 00-9.16-9.16zm7.16 14h-26v-4.84a7.18 7.18 0 017.16-7.16h11.68a7.18 7.18 0 017.16 7.16z" transform="translate(-283 -406)"/><path class="cls-1" d="M333 455a8 8 0 118-8 8 8 0 01-8 8zm0-14a6 6 0 106 6 6 6 0 00-6-6z" transform="translate(-283 -406)"/></svg>