<svg height="64" width="64" xmlns="http://www.w3.org/2000/svg"><g fill="#241F20"><path d="M56.03 35.45H7.44c-2.21 0-2.58 1.41-2.6 2.24C5.92 52.37 17.65 63.94 32 63.94c14.12 0 25.73-11.2 27.13-25.56l.01-.06c.02-.19.01-.37.03-.55-.09-2.06-2.36-2.3-3.14-2.32zM31.97 60.47c-11 0-19.97-9.01-20.57-20.34.1-.56.48-1.2 1.86-1.2h37.8c.37 0 1.47.16 1.46 1.6-.8 11.14-9.68 19.94-20.55 19.94zM47 16.88a5.63 5.63 0 00-1.3-2l-.03-.05-.04-.04a4.7 4.7 0 00-1.51-1.07c-1.76-.76-4.11-.58-4.11-.58H25.48s-1.22 0-2-.31c-.13-.06-.25-.12-.37-.2l-.06-.04a3.36 3.36 0 011.9-6.13h8.36c2.9 0 3.42-2.1 3.5-3.07V1.1c0-.88-.64-1.02-.74-1.04-.94.03-2.44.26-2.44 1.52v.73c-.03.38-.26 1.08-1.53 1.08h-7.66-.05c-.48.03-.93.08-1.31.14h-.02c-.27.05-.5.1-.68.18l-.13.07a6.75 6.75 0 00.85 13.02c.42.1.85.18 1.3.2v.03h.3l.1.01h15.44c1.94 0 2.78.52 3.13.87a3.33 3.33 0 01-1.12 4.22l-.06.04-.36.2c-.79.3-2 .3-2 .3H24.04s-1.13-.01-2.22.32l-.1.03a4.89 4.89 0 00-2.01 1.27l-.04.04-.04.04-.03.04a5.58 5.58 0 00-1.58 5.07c.09.32.4 1.05 1.46 1.05h.48c1.18-.03 1.48-2.2 1.48-2.2h.01c.07-.25.17-.49.32-.7 0-.01 0-.02.02-.03l.05-.06c.29-.34 1.1-.96 3.22-.96h14.5l.82-.01h.52v-.03a7 7 0 001.3-.2 6.77 6.77 0 004.8-9.46z"/></g></svg>