<svg height="64" width="64" xmlns="http://www.w3.org/2000/svg"><path d="M18.62 1.81c-7.88 4.34-10.26 15.16-5.3 24.16 3.6 6.52 10.05 10.31 16.35 10.24l7.99 5.92 4.81-2.65-.67-9.96c3.41-5.28 3.67-12.75.08-19.27C36.9 1.24 26.5-2.53 18.61 1.8zm16.62 30.07c-6.53 3.6-15.2.35-19.38-7.24S13.57 8 20.1 4.4c6.52-3.59 15.2-.35 19.38 7.25 4.18 7.59 2.28 16.65-4.24 20.24zM43.6 41.58l10.45 18.96c.4.74.13 1.69-.61 2.1l-2.1 1.16c-.76.41-1.7.14-2.11-.61L38.79 44.24l4.82-2.66zM21.32 40.81a11.55 11.55 0 100 23.1 11.55 11.55 0 000-23.1zM12.8 52.37a8.5 8.5 0 012.49-6.02c.03.1.03.2.08.3 3.13 4.56.8 9.55-.17 11.08-.08.12-.13.25-.17.38a8.48 8.48 0 01-2.23-5.74zm4.61 7.56c.06-.06.11-.13.17-.22 5.58-8.35.2-14.95.2-14.95-.03-.04-.08-.05-.12-.08a8.5 8.5 0 017.63.16c-.02.02-5.36 6.6.21 14.95a8.48 8.48 0 01-8.09.14zm10.47-2.13c-.97-1.52-3.3-6.5-.17-11.06a8.48 8.48 0 01.17 11.06z" fill="#241F20"/></svg>