<svg height="100" width="100" xmlns="http://www.w3.org/2000/svg"><g><g clip-rule="evenodd" fill-rule="evenodd"><path d="M94 90.54c-30.43.02-56.88 1.62-87.62.45-.63-22.24.15-48-.22-69.57 2.53-4.23 3.67-9.85 7.8-12.48 22.52-1.46 48.73-.22 73.13-.23 2.77 4.67 4.07 10.8 6.7 15.61-.1 20.33.5 47.27.22 66.22zm-79.6-77.6c-1.2 2.6-2.15 5.44-3.34 8.04 23.68-.43 51.47.05 76.48-.45-.75-1.87-2.2-4.92-3.12-7.36-22.85.46-46.92-1.12-70.01-.22zM88.89 29.9c0-1.14.6-3.24-.9-3.79-1.05-1.22-2.9-.67-4.23-.67-26.34 0-49.46.44-72.91.67.88 2.11.33 5.3.44 8.48.33 9.54.17 19.94.45 28.1 24.62-1.3 51.07-.73 77.15-.45-.04-10.35.05-22.14 0-32.34zM11.73 66.7c.1 6.95-.88 14.44.22 20.5h1.56c1.74-4.65-.2-12.98 3.57-15.6 5.69-3.32 15.59-1.68 16.5 4.9-.8 2.49.1 6.8-.22 10.26 2.2.62 5.3.65 7.36 0 .33-4.23-.83-8.66-.23-12.93 2.68-5.57 13.33-5.06 18.06-1.78.76 1.32 1.4 2.77 1.79 4.46-.53 3.03.5 7.87 0 9.58 1.68.93 4.79.45 7.13.23-.43-4.1-.13-8.94-.22-13.38 1.62-1.35 3.06-2.96 5.8-3.57 4.12-.92 10.63.5 12.04 3.57 1.57 3.43-.6 8.7.9 12.7h2.89c.04-6.74-.21-13.07 0-18.72-25.34-.48-51.55-.39-77.15-.23zm69.34 8.7c-2.76-2.34-8.2-2.16-10.48.43-.05 3.44.17 7.16-.22 10.26 2.9.6 8.28.22 11.82 0-.61-3.8.63-7.72-1.12-10.7zm-36.34.21c-1.13 3.05-.01 9.42-.22 11.15 3.21.64 8.87.39 12.26-.22.21-3.9-.1-9.07-2-11.6-2.75-1.3-8.25-1.84-10.04.67zm-16.95-.22c-3.12-2.72-9.38-1.05-10.25 2.45v9.14c3.47-.67 8.69.62 12.26-.66-.5-3.2.25-8.84-2-10.93zm40.8 9.81c.15.15-.09-.1 0 0z"/><path d="M21.54 29c1.5 2.78.42 8.82 1.56 11.6-.41 2.7-7.18 2.7-8.7.89.4-4.33-.47-9.8.9-12.93 1.86-.5 4.86-.28 6.24.44zM17.3 39.48c.82.16 1.7.39 2.46 0v-7.8c-4.1-1.53-1.92 5.04-2.46 7.8zM65.24 39.48c.26-.03.2-.4.23-.67.53.95-.5 2.54-.23 3.35-1.9.33-5.09.45-6.69-.22-.6-3.92.15-8.71 0-12.27 1.05-1.4 3.55-1.36 6.03-1.34 2.89 1.89.1 6.94.66 11.15zm-4.23-8.02v8.02c.63.28 1.37.28 2 0v-8.25c-.59-.23-1.7-.42-2 .22zM32.91 29.23c.55 1.63.24 4.7.45 7.58.15 2.14 1.19 4.35 0 5.57-2.03.37-5.55.37-7.58 0-.16-4.06-1.18-9.44-.23-13.15 2.34-.67 5.41-1.06 7.36 0zm-4.68 10.25c.78.11 1.45.33 2.45.23.5-2.25.08-5.42.22-8.03-4.36-1.72-2.15 4.95-2.67 7.8zM44.28 41.49c-.08.08-.33-.16-.22-.22a9.15 9.15 0 01-6.69 1.33c-1.34-3.18-.42-8.24-1.11-12.48 1.7-1.98 6.94-1.68 8.47.22-.36 3.95.46 7.72-.45 11.15zm-4.68-9.14c-.5 1.87-.09 4.67-.22 6.91.79.36 2.13.3 2.67-.22v-6.7c-.63-.6-1.75-.45-2.45 0zM54.76 41.71c-1.17 1.2-3.9.86-6.24.9-1.15-2.75-1.05-8-1.11-12.5.94-1.2 2.85-1.45 5.12-1.33 1.27.25 1.52 1.84 2.46 1.78-.04 2.71.71 8.88-.23 11.15zm-4.23-2.67c.63.27 1.37.27 2 0v-7.36c-3.55-1.3-1.44 4.93-2 7.36zm2.67-6.47c.15.15-.1-.1 0 0zM74.38 29.23c1.25 4.32.5 9.15.45 12.93a9.6 9.6 0 01-6.02 0c-.87-3.98.13-8.09-.67-12.71 1.61-1.41 4.53-.24 6.24-.22zm-3.79 2c.14 2.61-.28 5.79.23 8.03.8.07 1.45-.04 2-.22-.26-2.56.55-6.2-.44-8.03-.3-.49-1.2.26-1.79.22zM85.09 29.67c-.15 4.02.29 8.62-.23 12.26-1.17 1.05-5.57 1.07-6.46-.22.85-4.07-1.23-7.8-.67-12.04 2.18-.86 5.53-.4 7.36 0zm-4.24 2.23c-.38 2.1-.36 5.7 0 7.8.17.05.44.01.45.23 2.94-1.02.95-4.62 1.11-8.25-.6 0-1.27-.09-1.56.22zM44.28 41.49c.27-.02.14.32 0 0zM23.77 46.84c-.98 3.72.5 8.63-.67 12.26-1.25.56-4.64.73-6.91.45-1.7-2.7-.67-8.1-1.11-12.04.76-2.81 6.78-1.87 8.7-.67zm-6.24 2.23v7.58c.83.33 2.5.33 3.34 0v-7.8c-.98-.58-2.37.08-3.34.22zM33.8 45.95c.32 2.5 1.11 9.1.23 12.7-.42 1.04-3.58.92-6.25.9-.02-.57-.32-.86-.89-.9-.15-3.57.28-8.4-.44-11.59 1.14-1.54 4.92-1.6 7.35-1.11zm-4.68 10.92c.76.39 1.64.16 2.45 0V49.3c-3.94-2.39-2.6 5.16-2.45 7.58zM44.95 58.44c-1.49 1.26-3.02 1.12-5.8 1.1-.35-.52-.6-1.16-1.33-1.33-.57-3.93.33-7.31-.45-11.37.67-1.57 5.45-1.54 6.7-.45 2.66 2.29.17 8.43.88 12.05zm-5.13-9.6c-.04 1.54.03 4.88 0 7.14.84.28 1.32.92 2.68.67.92-1.76.24-5.11.45-7.58-.82-.23-2.2-.8-3.13-.22zM56.32 45.73c.33 3.93-.65 9.75.45 12.7-1.56 1.2-5.6 1.73-7.8.45-.1-3.54-.23-10.02.66-12.93.18-.04.23-.23.45-.22h6.24zm-4.45 2.9c-.39 2.23-.37 6 0 8.24.92.24.98.06 2 0 .5-2.31.09-5.56.22-8.25-.94.2-1.57-.58-2.23 0zM67.25 45.95c.68 3.55-.85 9.13.22 12.48-1.72.94-5.26 1.77-6.9.23.4-.78-.18-.73-.46-1.34.84-3.6-1.14-8.98.9-11.6 2.02.14 4.58-.27 6.24.23zm-4.68 2.67c.46 2.97-.29 5.13.44 8.03.65.29 1.59.29 2.23 0 .51-2.24.09-5.42.23-8.03-.73-.7-2.1-.4-2.9 0zM69.92 45.73h5.8c3.52 2.3.44 8.66 1.34 12.93-2.12.86-5.37.4-6.69 0-.35-4.11-.3-8.61-.45-12.93zm2.46 10.7c.82.15 1.7.38 2.45 0 .62-2.5-.03-5.6-.22-8.03-4.15-.73-1.47 5.37-2.23 8.03zM85.09 45.73c1.41 3.46 1.02 9.58.89 12.93-2.24.1-5.09.88-6.69-.45.1-3.2-1.08-8.56 0-12.04 1.43-.65 3.76-.4 5.8-.44zm-3.57 10.03c.67.3 1.78.3 2.45 0v-6.91c-3.72-1.96-2.12 4.11-2.45 6.9z"/></g></g></svg>