<svg width="97" height="50" xmlns="http://www.w3.org/2000/svg"><g fill="#000" fill-rule="nonzero"><path d="M46 36.36L35.85 10.61V0H9.47v10.6L0 36.37v9.85h2.03V50h5.41v-3.79h31.12V50h5.41v-3.79H46v-9.85zM10.82 10.61V1.5H34.5v9.1l10.07 25.75H1.43l9.4-25.75zM6.1 48.48h-2.7v-2.27h2.7v2.27zm36.53 0h-2.7v-2.27h2.7v2.27zm2.03-3.78H1.35v-6.82h43.3v6.82zM34.29 15.9H11.97L5.78 34.1h34.7l-6.19-18.2zM7.75 32.59l5.14-15.16h20.47l5.14 15.16H7.75zm14.57-22.7c0-1.69-1.22-3.06-2.74-3.06h-5.34a2.6 2.6 0 00-1.94.9c-.51.57-.8 1.35-.8 2.17v2.2c0 1.69 1.23 3.06 2.74 3.06h5.34c1.52 0 2.74-1.37 2.74-3.07v-2.2zm-1.35 2.2c0 .86-.62 1.56-1.39 1.56h-5.34c-.77 0-1.39-.7-1.39-1.56v-2.2c0-.85.62-1.55 1.39-1.55h5.34c.37 0 .72.17.98.46.26.29.41.68.41 1.1v2.2zm12.85-2.2c0-.8-.29-1.59-.8-2.16a2.6 2.6 0 00-1.94-.9h-5.34a2.6 2.6 0 00-1.94.9c-.51.57-.8 1.35-.8 2.17v2.2c0 1.69 1.23 3.06 2.74 3.06h5.34a2.6 2.6 0 001.94-.9c.51-.57.8-1.35.8-2.17v-2.2zm-1.35 2.2c0 .86-.62 1.56-1.39 1.56h-5.34c-.37 0-.72-.17-.98-.46-.26-.29-.4-.68-.4-1.1v-2.2c0-.4.14-.8.4-1.1.26-.28.61-.45.98-.45h5.34c.77 0 1.4.7 1.4 1.56v2.2zM97 36.36L86.85 10.61V0H60.47v10.6L51 36.37v9.85h2.03V50h5.41v-3.79h31.12V50h5.41v-3.79H97v-9.85zM61.82 10.61V1.5H85.5v9.1l10.07 25.75H52.43l9.4-25.75zM57.1 48.48h-2.7v-2.27h2.7v2.27zm36.53 0h-2.7v-2.27h2.7v2.27zm2.03-3.78h-43.3v-6.82h43.3v6.82zM85.29 15.9H62.97l-6.19 18.2h34.7l-6.19-18.2zM58.75 32.59l5.14-15.16h20.47l5.14 15.16H58.75zm14.57-22.7c0-1.69-1.22-3.06-2.74-3.06h-5.34a2.6 2.6 0 00-1.94.9c-.51.57-.8 1.35-.8 2.17v2.2c0 1.69 1.23 3.06 2.74 3.06h5.34c1.52 0 2.74-1.37 2.74-3.07v-2.2zm-1.35 2.2c0 .86-.62 1.56-1.39 1.56h-5.34c-.77 0-1.39-.7-1.39-1.56v-2.2c0-.85.62-1.55 1.39-1.55h5.34c.37 0 .72.17.98.46.26.29.41.68.41 1.1v2.2zm12.85-2.2c0-.8-.29-1.59-.8-2.16a2.6 2.6 0 00-1.94-.9h-5.34a2.6 2.6 0 00-1.94.9c-.51.57-.8 1.35-.8 2.17v2.2c0 1.69 1.23 3.06 2.74 3.06h5.34a2.6 2.6 0 001.94-.9c.51-.57.8-1.35.8-2.17v-2.2zm-1.35 2.2c0 .86-.62 1.56-1.39 1.56h-5.34c-.37 0-.72-.17-.98-.46-.26-.29-.4-.68-.4-1.1v-2.2c0-.4.14-.8.4-1.1.26-.28.61-.45.98-.45h5.34c.77 0 1.4.7 1.4 1.56v2.2z"/></g></svg>