<svg viewBox="0 0 64 64" xmlns="http://www.w3.org/2000/svg"><path d="M3 61h58V3H3v58zm2-2V20h54v39H5zM59 5v13H5V5h54z"/><path d="M32 23c-9.4 0-17 7.6-17 17s7.6 17 17 17 17-7.6 17-17-7.6-17-17-17zm0 32a15 15 0 01-14.9-13.6c3.2-.3 4.9.4 6.7 1.2a11.9 11.9 0 007.9 1.2c4.1-.7 6 .1 8.1 1 1.5.7 3.1 1.4 5.4 1.4h.6C43.3 51.3 38.1 55 32 55zm14.4-11c-2.6.3-4.2-.3-5.9-1.1-2.1-1-4.6-2-9.3-1.2-3.2.6-4.8-.1-6.7-1-1.9-.8-4-1.8-7.6-1.4a15 15 0 0115-14.4c8.3 0 15 6.7 15 15 .1 1.5-.1 2.9-.5 4.1zM37 14c1.7 0 3-1.3 3-3s-1.3-3-3-3-3 1.3-3 3 1.3 3 3 3zm0-4c.6 0 1 .4 1 1s-.4 1-1 1-1-.4-1-1 .4-1 1-1zM45 14c1.7 0 3-1.3 3-3s-1.3-3-3-3-3 1.3-3 3 1.3 3 3 3zm0-4c.6 0 1 .4 1 1s-.4 1-1 1-1-.4-1-1 .4-1 1-1zM53 14c1.7 0 3-1.3 3-3s-1.3-3-3-3-3 1.3-3 3 1.3 3 3 3zm0-4c.6 0 1 .4 1 1s-.4 1-1 1-1-.4-1-1 .4-1 1-1z"/></svg>