<svg height="128" width="128" xmlns="http://www.w3.org/2000/svg"><path d="M84.52 81.44a2 2 0 01-1.54-.73 24.88 24.88 0 00-38.05-.48 2 2 0 11-3.02-2.62 28.9 28.9 0 0144.15.56 2 2 0 01-1.54 3.27z"/><path d="M98.78 64.71a2 2 0 01-1.5-.66 45.08 45.08 0 00-33.53-15 45.15 45.15 0 00-33.1 14.51 2 2 0 01-2.94-2.7 49.16 49.16 0 0136.04-15.8 49.09 49.09 0 0136.52 16.32 2 2 0 01-1.49 3.33z"/><path d="M112.05 48.98a2 2 0 01-1.47-.64 63.95 63.95 0 00-46.83-20.5c-17.73 0-34.2 7.11-46.38 20.02a2 2 0 11-2.9-2.75 67.11 67.11 0 0149.28-21.26 67.96 67.96 0 0149.77 21.78 2 2 0 01-1.47 3.35zM63.97 103.2a8.37 8.37 0 010-16.7 8.36 8.36 0 010 16.7zm0-12.7a4.36 4.36 0 100 8.71 4.36 4.36 0 000-8.71z"/></svg>